<?xml version="1.0" encoding="iso-8859-1"?>
<!-- Generator: Adobe Illustrator 19.0.0, SVG Export Plug-In . SVG Version: 6.00 Build 0)  -->
<svg version="1.1" id="Layer_1" xmlns="http://www.w3.org/2000/svg" xmlns:xlink="http://www.w3.org/1999/xlink" x="0px" y="0px"
	 viewBox="0 0 368 368" style="enable-background:new 0 0 368 368;" xml:space="preserve">
<g>
	<g>
		<g>
			<path d="M277.2,90.8c-2.4-2.4-6.4-3.2-9.6-1.2l-113.2,61.6c-1.2,0.8-2.4,2-3.2,3.2l-62,113.2c-1.6,3.2-1.2,6.8,1.2,9.6
				c1.6,1.6,3.6,2.4,5.6,2.4c1.2,0,2.8-0.4,4-0.8l113.2-62c1.2-0.8,2.4-2,3.2-3.2l62-113.2C280.4,97.2,279.6,93.2,277.2,90.8z
				 M116.4,251.2l44-79.6l36,36L116.4,251.2z M207.6,196.4l-36-36l80-43.6L207.6,196.4z"/>
			<path d="M184,0C82.4,0,0,82.4,0,184s82.4,184,184,184s184-82.4,184-184S285.6,0,184,0z M184,352c-92.8,0-168-75.2-168-168
				S91.2,16,184,16s168,75.2,168,168S276.8,352,184,352z"/>
			<path d="M184,60c4.4,0,8-3.6,8-8v-4c0-4.4-3.6-8-8-8c-4.4,0-8,3.6-8,8v4C176,56.4,179.6,60,184,60z"/>
			<path d="M184,308c-4.4,0-8,3.6-8,8v4c0,4.4,3.6,8,8,8c4.4,0,8-3.6,8-8v-4C192,311.6,188.4,308,184,308z"/>
			<path d="M320,176h-4c-4.4,0-8,3.6-8,8c0,4.4,3.6,8,8,8h4c4.4,0,8-3.6,8-8C328,179.6,324.4,176,320,176z"/>
			<path d="M52,176h-4c-4.4,0-8,3.6-8,8c0,4.4,3.6,8,8,8h4c4.4,0,8-3.6,8-8C60,179.6,56.4,176,52,176z"/>
			<path d="M282.8,271.6c-3.2-3.2-8-3.2-11.2,0s-3.2,8,0,11.2l2.8,2.8c1.6,1.6,3.6,2.4,5.6,2.4s4-0.8,5.6-2.4c3.2-3.2,3.2-8,0-11.2
				L282.8,271.6z"/>
			<path d="M96.4,96.4c3.2-3.2,3.2-8,0-11.2l-2.8-2.8c-3.2-3.2-8-3.2-11.2,0c-3.2,3.2-3.2,8,0,11.2l2.8,2.8c1.6,1.6,3.6,2.4,5.6,2.4
				S94.8,98,96.4,96.4z"/>
		</g>
	</g>
</g>
<g>
</g>
<g>
</g>
<g>
</g>
<g>
</g>
<g>
</g>
<g>
</g>
<g>
</g>
<g>
</g>
<g>
</g>
<g>
</g>
<g>
</g>
<g>
</g>
<g>
</g>
<g>
</g>
<g>
</g>
</svg>
